# xmcd
#
# Track frame offsets:
#	150
#	18223
#	39980
#	58222
#	76710
#	95293
#	111763
#	133537
#	148238
#	169555
#	189146
#	208366
#	223311
#	243108
#	268776
#	284931
#	299746
#	317491
#	349374
#
# Disc length: 4878 seconds
#
# Revision: 1
# Processed by: cddbd v1.5.2PL0 Copyright (c) Steve Scherf et al.
# Submitted via: audiograbber 1.83.01
#
DISCID=2a130c13
DTITLE=Schiller - Zeitreise - Das Beste von Schiller [Limited Super Deluxe Edit
DTITLE=ion] [CD 2)
DYEAR=2016
DGENRE=Electronic
TTITLE0=Zeitreise II
TTITLE1=Leidenschaft [mit Jaki Liebezeit]
TTITLE2=Morgentau [mit Mike Oldfield]
TTITLE3=Let It Rise [mit Midge Ure]
TTITLE4=Liebesschmerz
TTITLE5=Lichtermeer
TTITLE6=Zenith [mit Klaus Schulze]
TTITLE7=Time For Dreams [mit Lang Lang]
TTITLE8=Try [mit Nadia Ali]
TTITLE9=Die Nacht....Du bist nicht allein [mit Thomas D]
TTITLE10=You [mit Colbie Caillat]
TTITLE11=Solaris
TTITLE12=Sonne [mit Unheilig]
TTITLE13=Nachtflug
TTITLE14=Ein schöner Tag
TTITLE15=Das Glockenspiel
TTITLE16=Sehnsucht [mit Xavier Naidoo]
TTITLE17=Schiller
TTITLE18=Ruhe
EXTD=
EXTT0=
EXTT1=
EXTT2=
EXTT3=
EXTT4=
EXTT5=
EXTT6=
EXTT7=
EXTT8=
EXTT9=
EXTT10=
EXTT11=
EXTT12=
EXTT13=
EXTT14=
EXTT15=
EXTT16=
EXTT17=
EXTT18=
PLAYORDER=
